<svg width="500" height="500" viewBox="0 0 500 500" fill="none" xmlns="http://www.w3.org/2000/svg">
<rect width="500" height="500" rx="40" fill="#BAEB33"/>
<mask id="mask0_69_142" style="mask-type:luminance" maskUnits="userSpaceOnUse" x="114" y="87" width="271" height="327">
<path d="M114 87H385V413.618H114V87Z" fill="white"/>
</mask>
<g mask="url(#mask0_69_142)">
<path d="M169.464 127.231C195.728 104.2 229.43 89.4568 266.493 87.04V196.306C265.587 196.486 264.686 196.688 263.795 196.912L235.467 128.931L220.531 135.133L248.871 203.137C248.146 203.575 247.432 204.028 246.731 204.496L169.464 127.231ZM288.099 87.04C325.163 89.4568 358.855 104.21 385.122 127.231L307.859 204.494C307.087 203.98 306.303 203.484 305.508 203.01L333.554 134.893L318.616 128.756L290.577 196.857C289.759 196.652 288.932 196.471 288.099 196.306V87.04ZM385.122 373.435C358.861 396.46 325.163 411.21 288.099 413.625V304.361C289.006 304.18 289.909 303.979 290.8 303.754L319.124 371.73L334.061 365.526L305.725 297.529C306.448 297.092 307.158 296.64 307.859 296.173L385.122 373.435ZM266.493 413.625C229.43 411.21 195.728 396.462 169.464 373.435L246.731 296.17C247.499 296.681 248.28 297.177 249.076 297.651L221.031 365.77L235.967 371.908L264.008 303.807C264.831 304.008 265.659 304.194 266.494 304.361V413.625H266.493ZM154.194 358.159C131.167 331.893 116.419 298.196 114.004 261.136H223.268C223.449 262.042 223.65 262.94 223.875 263.832L155.893 292.159L162.097 307.095L230.1 278.758C230.537 279.481 230.989 280.195 231.456 280.895L154.194 358.159ZM114.004 239.53C116.419 202.466 131.173 168.774 154.194 142.507L231.456 219.77C230.945 220.538 230.449 221.32 229.974 222.115L161.854 194.069L155.717 209.006L223.822 237.047C223.621 237.87 223.433 238.694 223.267 239.53H114.004Z" fill="black"/>
</g>
</svg>
